# xmcd CD database file
#
# Track frame offsets:
#	150
#	18608
#	31756
#	46244
#	60220
#	82746
#	103017
#	119334
#	140034
#	157331
#	179114
#	198658
#	221067
#	240085
#	256303
#	275081
#	300167
#	310452
#
# Disc length: 4335 seconds
#
# Revision: 0
# Processed by: cddbd v1.4PL0 Copyright (c) Steve Scherf et al.
# Submitted via: CDex 1.50
#
DISCID=fc10ed12
DTITLE=Iguanamen de Galapagos - Iguanamen
DYEAR=2002
DGENRE=Blues
TTITLE0=Iguanaman
TTITLE1=Un Mojon en la Marea
TTITLE2=Isabela
TTITLE3=Me Canse de Vivir
TTITLE4=Got me Running
TTITLE5=Santa Cruz Blues
TTITLE6=Ain't no Sunshine
TTITLE7=Could it be?
TTITLE8=Vortex
TTITLE9=Millie's Song
TTITLE10=Iguana Mar Iguana
TTITLE11=Platos Sucios
TTITLE12=Sin embargo se mueve
TTITLE13=Si no estoy aqui
TTITLE14=Magaly
TTITLE15=Za Zen
TTITLE16=Permanent Resident
TTITLE17=End/Fin
EXTD=YEAR: 2002
EXTT0=
EXTT1=
EXTT2=
EXTT3=
EXTT4=
EXTT5=
EXTT6=
EXTT7=
EXTT8=
EXTT9=
EXTT10=
EXTT11=
EXTT12=
EXTT13=
EXTT14=
EXTT15=
EXTT16=
EXTT17=
PLAYORDER=
